PathFileType	3	(X/Y/Z)	dance_move_1__view1_aligned.trc
DataRate	CameraRate	NumFrames	NumMarkers	Units	OrigDataRate	OrigDataStartFrame	OrigNumFrames
100.0	100.0	7	19	mm	100.0	371	890
Frame#	Time	pelvis			neck			head			hip_left			hip_right			knee_left			knee_right			ankle_left			ankle_right			heel_left			heel_right			toe_left			toe_right			shoulder_left			shoulder_right			elbow_left			elbow_right			wrist_left			wrist_right			
		X1	Y1	Z1	X2	Y2	Z2	X3	Y3	Z3	X4	Y4	Z4	X5	Y5	Z5	X6	Y6	Z6	X7	Y7	Z7	X8	Y8	Z8	X9	Y9	Z9	X10	Y10	Z10	X11	Y11	Z11	X12	Y12	Z12	X13	Y13	Z13	X14	Y14	Z14	X15	Y15	Z15	X16	Y16	Z16	X17	Y17	Z17	X18	Y18	Z18	X19	Y19	Z19	
371	3.70000	136.806075	712.369045	68.291801	112.423391	1165.157868	-231.234238	116.156157	1195.728478	-399.098321	62.405394	716.857258	76.538620	211.206756	707.880832	60.044980	-57.699443	464.416198	-245.563371	227.806787	483.007879	-304.779126	-77.138707	163.143999	19.016303	294.482507	147.669683	-99.330610	-72.082995	130.265405	69.006085	303.779411	115.306776	-49.971990	-134.910660	83.017392	-137.220782	297.311905	46.082958	-261.467802	-73.463957	1112.410503	-184.016810	300.379716	1112.876760	-223.298614	-41.572533	817.572695	-173.783448	236.882821	829.963565	-287.737005	77.747870	601.077836	-233.854581	119.164954	614.003483	-384.099417
372	3.71000	138.241562	712.674867	66.969816	113.567918	1165.582894	-232.498351	117.414147	1195.947938	-400.325706	63.715975	717.038414	75.056296	212.767150	708.311319	58.883337	-56.299313	465.025640	-247.252511	231.726888	483.329891	-304.685610	-74.797153	163.742091	16.519015	296.559579	147.751120	-100.394163	-69.610961	130.833822	66.405775	305.553958	115.275755	-51.185872	-132.698930	83.820424	-139.802033	299.367768	46.716764	-262.770658	-72.196955	1113.072101	-185.039204	301.441764	1113.568825	-224.093904	-42.411166	819.037817	-173.683444	240.211808	831.168254	-288.618007	74.992240	602.351646	-234.471312	125.360543	615.369448	-384.999195
373	3.72000	139.677048	712.980688	65.647831	114.712446	1166.007920	-233.762465	118.672138	1196.167398	-401.553091	65.026556	717.219570	73.573972	214.327545	708.741807	57.721695	-54.899182	465.635082	-248.941651	235.646989	483.651903	-304.592094	-72.455598	164.340183	14.021726	298.636651	147.832558	-101.457717	-67.138927	131.402239	63.805465	307.328504	115.244733	-52.399755	-130.487200	84.623456	-142.383285	301.423630	47.350570	-264.073514	-70.929953	1113.733699	-186.061598	302.503812	1114.260891	-224.889195	-43.249799	820.502939	-173.583440	243.540796	832.372943	-289.499009	72.236610	603.625457	-235.088043	131.556131	616.735413	-385.898973
374	3.73000	141.112534	713.286510	64.325846	115.856974	1166.432946	-235.026578	119.930128	1196.386858	-402.780476	66.337137	717.400727	72.091648	215.887939	709.172294	56.560052	-53.499052	466.244524	-250.630790	239.567090	483.973914	-304.498578	-70.114043	164.938276	11.524438	300.713724	147.913996	-102.521270	-64.666893	131.970656	61.205155	309.103050	115.213711	-53.613638	-128.275469	85.426488	-144.964536	303.479492	47.984375	-265.376369	-69.662951	1114.395298	-187.083992	303.565860	1114.952957	-225.684486	-44.088432	821.968061	-173.483436	246.869783	833.577632	-290.380010	69.480980	604.899267	-235.704774	137.751720	618.101378	-386.798751
375	3.74000	142.548020	713.592332	63.003861	117.001501	1166.857972	-236.290691	121.188118	1196.606317	-404.007861	67.647718	717.581883	70.609324	217.448334	709.602781	55.398409	-52.098921	466.853966	-252.319930	243.487192	484.295926	-304.405061	-67.772488	165.536368	9.027149	302.790796	147.995433	-103.584823	-62.194859	132.539074	58.604845	310.877597	115.182690	-54.827521	-126.063739	86.229519	-147.545788	305.535354	48.618181	-266.679225	-68.395949	1115.056896	-188.106386	304.627908	1115.645023	-226.479776	-44.927065	823.433184	-173.383432	250.198770	834.782322	-291.261012	66.725350	606.173078	-236.321504	143.947309	619.467343	-387.698528
376	3.75000	143.983506	713.898154	61.681876	118.146029	1167.282998	-237.554804	122.446108	1196.825777	-405.235246	68.958299	717.763040	69.127000	219.008728	710.033269	54.236767	-50.698791	467.463408	-254.009070	247.407293	484.617938	-304.311545	-65.430933	166.134461	6.529861	304.867868	148.076871	-104.648377	-59.722824	133.107491	56.004535	312.652143	115.151668	-56.041404	-123.852009	87.032551	-150.127039	307.591216	49.251987	-267.982081	-67.128947	1115.718494	-189.128780	305.689956	1116.337088	-227.275067	-45.765698	824.898306	-173.283427	253.527757	835.987011	-292.142014	63.969720	607.446888	-236.938235	150.142898	620.833308	-388.598306
377	3.76000	145.418992	714.203976	60.359891	119.290556	1167.708023	-238.818918	123.704098	1197.045237	-406.462631	70.268880	717.944196	67.644676	220.569123	710.463756	53.075124	-49.298660	468.072850	-255.698210	251.327394	484.939950	-304.218029	-63.089378	166.732553	4.032573	306.944941	148.158309	-105.711930	-57.250790	133.675908	53.404225	314.426690	115.120646	-57.255287	-121.640279	87.835583	-152.708291	309.647079	49.885792	-269.284936	-65.861945	1116.380092	-190.151174	306.752004	1117.029154	-228.070358	-46.604332	826.363428	-173.183423	256.856744	837.191700	-293.023015	61.214090	608.720699	-237.554966	156.338486	622.199273	-389.498084
